<!DOCTYPE svg PUBLIC "-//W3C//DTD SVG 1.1//EN" "http://www.w3.org/Graphics/SVG/1.1/DTD/svg11.dtd">
<!-- Uploaded to: SVG Repo, www.svgrepo.com, Transformed by: SVG Repo Mixer Tools -->
<svg width="147px" height="147px" viewBox="-15.92 -15.92 107.64 107.64" xmlns="http://www.w3.org/2000/svg" fill="#000000" stroke="#000000" stroke-width="0.00075803">
<g id="SVGRepo_bgCarrier" stroke-width="0"/>
<g id="SVGRepo_tracerCarrier" stroke-linecap="round" stroke-linejoin="round" stroke="#fff5f5" stroke-width="8.641541999999998"> <g id="Group_64" data-name="Group 64" transform="translate(-624.082 -383.588)"> <path id="Path_56" data-name="Path 56" d="M660.313,383.588a1.5,1.5,0,0,1,1.06,2.561l-33.556,33.56a2.528,2.528,0,0,0,0,3.564l33.556,33.558a1.5,1.5,0,0,1-2.121,2.121L625.7,425.394a5.527,5.527,0,0,1,0-7.807l33.556-33.559A1.5,1.5,0,0,1,660.313,383.588Z" fill="#ffffff"/> </g> </g>
<g id="SVGRepo_iconCarrier"> <g id="Group_64" data-name="Group 64" transform="translate(-624.082 -383.588)"> <path id="Path_56" data-name="Path 56" d="M660.313,383.588a1.5,1.5,0,0,1,1.06,2.561l-33.556,33.56a2.528,2.528,0,0,0,0,3.564l33.556,33.558a1.5,1.5,0,0,1-2.121,2.121L625.7,425.394a5.527,5.527,0,0,1,0-7.807l33.556-33.559A1.5,1.5,0,0,1,660.313,383.588Z" fill="#ffffff"/> </g> </g>
</svg>