<svg width="20" height="19" viewBox="0 0 20 19" fill="none" xmlns="http://www.w3.org/2000/svg">
<path d="M2.80662 8.09967C2.8031 6.35676 3.43134 4.67164 4.57497 3.35641C5.94687 1.77864 7.85828 0.955087 9.91662 0.939668C11.9876 0.924156 13.9216 1.74703 15.3084 3.32632C16.4673 4.64598 17.1044 6.34341 17.1 8.09967V11.393C17.1829 12.5112 17.4889 13.6016 18 14.5997L2.80662 8.09967ZM2.80662 8.09967V11.393V8.09967ZM17.3701 15.0069C17.8677 15.7764 18.4653 16.4764 19.1471 17.0886C19.1473 17.0902 19.1476 17.092 19.1478 17.0938C19.1521 17.1264 19.1544 17.1724 19.1539 17.2457C19.1536 17.2821 19.1528 17.3188 19.1518 17.3636C19.1509 17.4061 19.15 17.4557 19.15 17.5063V17.8763H0.783284V17.5063C0.783284 17.4557 0.782285 17.4061 0.78139 17.3636L0.781159 17.3527C0.780313 17.3128 0.779598 17.2791 0.779369 17.2457C0.778865 17.1724 0.781155 17.1264 0.785429 17.0938C0.78569 17.0918 0.785955 17.0899 0.786212 17.0882C1.45989 16.4732 2.04935 15.7719 2.53927 15.0025C2.55186 14.9827 2.56352 14.9623 2.5742 14.9415C3.13085 13.8542 3.46419 12.6666 3.55456 11.4485C3.55593 11.43 3.55662 11.4115 3.55662 11.393L3.55662 8.09967L3.55662 8.09816C3.55347 6.53664 4.11632 5.02688 5.14094 3.84853C6.36376 2.44221 8.06665 1.70355 9.92223 1.68965C11.7848 1.6757 13.5078 2.41244 14.7449 3.8212C15.7831 5.00353 16.3539 6.5243 16.35 8.09778V8.09967V11.393C16.35 11.4115 16.3506 11.43 16.352 11.4485C16.4424 12.6666 16.7757 13.8542 17.3324 14.9415C17.3438 14.9639 17.3565 14.9857 17.3701 15.0069Z" stroke="#1864FF" stroke-width="1.5" stroke-linejoin="round"/>
</svg>
