<svg width="24" height="24" viewBox="0 0 24 24" fill="none" xmlns="http://www.w3.org/2000/svg">
<path d="M4.00065 5.3335V3.3335C4.00065 2.22683 4.89398 1.3335 6.00065 1.3335H18.0007C19.1073 1.3335 20.0006 2.22683 20.0006 3.3335V8.00016M6.00065 17.3335H8.66732M20.6673 22.6668H3.33398C2.22732 22.6668 1.33398 21.7735 1.33398 20.6668V7.3335C1.33398 6.22683 2.22732 5.3335 3.33398 5.3335H9.66732C9.88065 5.3335 10.0807 5.42683 10.2007 5.60016L12.0007 8.00016H20.6673C21.774 8.00016 22.6673 8.8935 22.6673 10.0002V20.6668C22.6673 21.7735 21.774 22.6668 20.6673 22.6668Z" stroke="#1864FF" stroke-width="1.5" stroke-linecap="round" stroke-linejoin="round"/>
</svg>
