<svg width="24" height="24" viewBox="0 0 24 24" fill="none" xmlns="http://www.w3.org/2000/svg">
<path d="M6.15 19.4H17.85M19.65 8.6C18.9047 8.6 18.3 9.20469 18.3 9.95C18.3 10.1497 18.345 10.3353 18.4237 10.5069L16.3875 11.7275C15.9544 11.9862 15.3947 11.84 15.1444 11.4012L12.8522 7.39062C13.1531 7.14312 13.35 6.77187 13.35 6.35C13.35 5.60469 12.7453 5 12 5C11.2547 5 10.65 5.60469 10.65 6.35C10.65 6.77187 10.8469 7.14312 11.1478 7.39062L8.85562 11.4012C8.60531 11.84 8.04281 11.9862 7.6125 11.7275L5.57906 10.5069C5.655 10.3381 5.70281 10.1497 5.70281 9.95C5.70281 9.20469 5.09812 8.6 4.35281 8.6C3.6075 8.6 3 9.20469 3 9.95C3 10.6953 3.60469 11.3 4.35 11.3C4.42312 11.3 4.49625 11.2887 4.56656 11.2775L6.6 16.7H17.4L19.4334 11.2775C19.5037 11.2887 19.5769 11.3 19.65 11.3C20.3953 11.3 21 10.6953 21 9.95C21 9.20469 20.3953 8.6 19.65 8.6Z" stroke="#1864FF" stroke-width="1.5" stroke-linecap="round" stroke-linejoin="round"/>
</svg>
