<svg width="24" height="24" viewBox="0 0 24 24" fill="none" xmlns="http://www.w3.org/2000/svg">
<path d="M12.1933 17.8682C12.0767 17.8068 11.9373 17.8067 11.8207 17.8681L6.54378 20.6424C6.25033 20.7967 5.90734 20.5475 5.9634 20.2208L6.97142 14.3444C6.9937 14.2146 6.9506 14.0821 6.85619 13.9902L2.58156 9.82926C2.34385 9.59787 2.47489 9.19434 2.80319 9.14676L8.70146 8.29194C8.8318 8.27305 8.94449 8.19121 9.00278 8.0731L11.6413 2.72681C11.788 2.42951 12.212 2.4295 12.3587 2.72681L14.9972 8.0731C15.0555 8.19121 15.1682 8.27305 15.2985 8.29194L21.1968 9.14676C21.5251 9.19434 21.6562 9.59787 21.4184 9.82926L17.1438 13.9902C17.0494 14.0821 17.0063 14.2146 17.0286 14.3444L18.0364 20.2198C18.0925 20.5468 17.7492 20.796 17.4557 20.6413L12.1933 17.8682Z" stroke="#1864FF" stroke-width="1.5" stroke-linecap="round" stroke-linejoin="round"/>
</svg>
