<svg width="18" height="13" viewBox="0 0 18 13" fill="none" xmlns="http://www.w3.org/2000/svg">
<path d="M16.6352 5.836C16.8784 6.1768 17 6.348 17 6.6C17 6.8528 16.8784 7.0232 16.6352 7.364C15.5424 8.8968 12.7512 12.2 9 12.2C5.248 12.2 2.4576 8.896 1.3648 7.364C1.1216 7.0232 1 6.852 1 6.6C1 6.3472 1.1216 6.1768 1.3648 5.836C2.4576 4.3032 5.2488 1 9 1C12.752 1 15.5424 4.304 16.6352 5.836Z" stroke="#1864FF" stroke-width="1.5" stroke-linecap="round" stroke-linejoin="round"/>
<path d="M11.4016 6.6002C11.4016 5.96368 11.1487 5.35323 10.6986 4.90314C10.2485 4.45305 9.63808 4.2002 9.00156 4.2002C8.36504 4.2002 7.75459 4.45305 7.30451 4.90314C6.85442 5.35323 6.60156 5.96368 6.60156 6.6002C6.60156 7.23671 6.85442 7.84716 7.30451 8.29725C7.75459 8.74734 8.36504 9.0002 9.00156 9.0002C9.63808 9.0002 10.2485 8.74734 10.6986 8.29725C11.1487 7.84716 11.4016 7.23671 11.4016 6.6002Z" stroke="#1864FF" stroke-width="1.5" stroke-linecap="round" stroke-linejoin="round"/>
</svg>
