<svg width="24" height="24" viewBox="0 0 24 24" fill="none" xmlns="http://www.w3.org/2000/svg">
<path d="M19.6352 10.836C19.8784 11.1768 20 11.348 20 11.6C20 11.8528 19.8784 12.0232 19.6352 12.364C18.5424 13.8968 15.7512 17.2 12 17.2C8.248 17.2 5.4576 13.896 4.3648 12.364C4.1216 12.0232 4 11.852 4 11.6C4 11.3472 4.1216 11.1768 4.3648 10.836C5.4576 9.3032 8.2488 6 12 6C15.752 6 18.5424 9.304 19.6352 10.836Z" stroke="#1864FF" stroke-width="1.5" stroke-linecap="round" stroke-linejoin="round"/>
<path d="M14.4016 11.6002C14.4016 10.9637 14.1487 10.3532 13.6986 9.90314C13.2485 9.45305 12.6381 9.2002 12.0016 9.2002C11.365 9.2002 10.7546 9.45305 10.3045 9.90314C9.85442 10.3532 9.60156 10.9637 9.60156 11.6002C9.60156 12.2367 9.85442 12.8472 10.3045 13.2973C10.7546 13.7473 11.365 14.0002 12.0016 14.0002C12.6381 14.0002 13.2485 13.7473 13.6986 13.2973C14.1487 12.8472 14.4016 12.2367 14.4016 11.6002Z" stroke="#1864FF" stroke-width="1.5" stroke-linecap="round" stroke-linejoin="round"/>
</svg>
