<svg width="24" height="24" viewBox="0 0 24 24" fill="none" xmlns="http://www.w3.org/2000/svg">
<path d="M22 12.4995H8.64324M3.92865 12.4995H2M3.92865 12.4995C3.92865 11.8744 4.17695 11.275 4.61893 10.833C5.0609 10.391 5.66035 10.1427 6.28541 10.1427C6.91046 10.1427 7.50991 10.391 7.95188 10.833C8.39386 11.275 8.64216 11.8744 8.64216 12.4995C8.64216 13.1245 8.39386 13.724 7.95188 14.1659C7.50991 14.6079 6.91046 14.8562 6.28541 14.8562C5.66035 14.8562 5.0609 14.6079 4.61893 14.1659C4.17695 13.724 3.92865 13.1245 3.92865 12.4995ZM22 19.6422H15.7859M15.7859 19.6422C15.7859 20.2674 15.537 20.8675 15.095 21.3096C14.6529 21.7516 14.0533 22 13.4281 22C12.8031 22 12.2036 21.7506 11.7616 21.3086C11.3197 20.8667 11.0714 20.2672 11.0714 19.6422M15.7859 19.6422C15.7859 19.017 15.537 18.4179 15.095 17.9758C14.6529 17.5338 14.0533 17.2854 13.4281 17.2854C12.8031 17.2854 12.2036 17.5337 11.7616 17.9757C11.3197 18.4177 11.0714 19.0171 11.0714 19.6422M11.0714 19.6422H2M22 5.35676H18.6432M13.9286 5.35676H2M13.9286 5.35676C13.9286 4.73171 14.1769 4.13226 14.6189 3.69028C15.0609 3.2483 15.6604 3 16.2854 3C16.5949 3 16.9014 3.06096 17.1873 3.1794C17.4732 3.29784 17.733 3.47143 17.9519 3.69028C18.1707 3.90912 18.3443 4.16893 18.4628 4.45486C18.5812 4.7408 18.6422 5.04726 18.6422 5.35676C18.6422 5.66625 18.5812 5.97271 18.4628 6.25865C18.3443 6.54458 18.1707 6.80439 17.9519 7.02323C17.733 7.24208 17.4732 7.41568 17.1873 7.53412C16.9014 7.65255 16.5949 7.71351 16.2854 7.71351C15.6604 7.71351 15.0609 7.46521 14.6189 7.02323C14.1769 6.58126 13.9286 5.98181 13.9286 5.35676Z" stroke="#1864FF" stroke-width="1.5" stroke-miterlimit="10" stroke-linecap="round"/>
</svg>
