<svg width="18" height="20" viewBox="0 0 18 20" fill="none" xmlns="http://www.w3.org/2000/svg">
<path fill-rule="evenodd" clip-rule="evenodd" d="M0 17.5667C0 18.9111 1.06109 20 2.36996 20H5.11108C5.66337 20 6.11108 19.5523 6.11108 19V13.8892C6.11108 13.2998 6.34521 12.7346 6.76195 12.3179C7.17869 11.9011 7.74391 11.667 8.33327 11.667H9.44437C10.0337 11.667 10.5989 11.9011 11.0157 12.3179C11.4324 12.7346 11.6666 13.2998 11.6666 13.8892V19C11.6666 19.5523 12.1143 20 12.6666 20H15.4075C16.7164 20 17.7775 18.9111 17.7775 17.5667V7.78685C17.7775 7.04798 17.4497 6.34799 16.8875 5.88688L10.3698 0.533632C9.95334 0.188729 9.42952 0 8.88875 0C8.34798 0 7.82417 0.188729 7.40766 0.533632L0.888875 5.88688C0.327773 6.34799 0 7.04798 0 7.78685V17.5667Z" fill="#1864FF"/>
</svg>
