<svg width="24" height="24" viewBox="0 0 24 24" fill="none" xmlns="http://www.w3.org/2000/svg">
<g clip-path="url(#clip0_4081_21143)">
<path d="M2.71094 20.9857H13.4252M11.9967 20.9857V17.4143H4.13951V20.9857M14.8538 10.2714L21.2824 16.7M13.1209 3.43145L7.99951 8.55288C7.73169 8.82078 7.58124 9.18407 7.58124 9.56288C7.58124 9.94168 7.73169 10.305 7.99951 10.5729L10.2624 12.8357C10.5303 13.1036 10.8936 13.254 11.2724 13.254C11.6512 13.254 12.0145 13.1036 12.2824 12.8357L17.4038 7.71431C17.6716 7.44641 17.8221 7.08311 17.8221 6.70431C17.8221 6.3255 17.6716 5.9622 17.4038 5.69431L15.1395 3.43145C14.8716 3.16363 14.5083 3.01318 14.1295 3.01318C13.7507 3.01318 13.3874 3.16363 13.1195 3.43145H13.1209Z" stroke="#1864FF" stroke-width="1.5" stroke-linecap="round" stroke-linejoin="round"/>
</g>
<defs>
<clipPath id="clip0_4081_21143">
<rect width="20" height="20" fill="white" transform="translate(2 2)"/>
</clipPath>
</defs>
</svg>
