<svg width="16" height="20" viewBox="0 0 16 20" fill="none" xmlns="http://www.w3.org/2000/svg">
<path d="M12.7692 7.92308V5.84615C12.7692 4.56087 12.2587 3.32824 11.3498 2.41941C10.441 1.51058 9.20836 1 7.92308 1C6.6378 1 5.40516 1.51058 4.49633 2.41941C3.5875 3.32824 3.07692 4.56087 3.07692 5.84615V7.92308M13.4615 7.92308H2.38462C2.01739 7.92308 1.66521 8.06896 1.40554 8.32862C1.14588 8.58829 1 8.94047 1 9.30769V17.6154C1 17.9826 1.14588 18.3348 1.40554 18.5945C1.66521 18.8541 2.01739 19 2.38462 19H13.4615C13.8288 19 14.1809 18.8541 14.4406 18.5945C14.7003 18.3348 14.8462 17.9826 14.8462 17.6154V9.30769C14.8462 8.94047 14.7003 8.58829 14.4406 8.32862C14.1809 8.06896 13.8288 7.92308 13.4615 7.92308Z" stroke="#1864FF" stroke-width="1.5" stroke-linecap="round" stroke-linejoin="round"/>
<path d="M7.91887 14.1537C8.10248 14.1537 8.27857 14.0807 8.40841 13.9509C8.53824 13.8211 8.61118 13.645 8.61118 13.4614C8.61118 13.2777 8.53824 13.1016 8.40841 12.9718C8.27857 12.842 8.10248 12.769 7.91887 12.769C7.73526 12.769 7.55917 12.842 7.42933 12.9718C7.2995 13.1016 7.22656 13.2777 7.22656 13.4614C7.22656 13.645 7.2995 13.8211 7.42933 13.9509C7.55917 14.0807 7.73526 14.1537 7.91887 14.1537Z" fill="#1864FF" stroke="#1864FF" stroke-width="1.5" stroke-linecap="round" stroke-linejoin="round"/>
</svg>
