<svg width="24" height="24" viewBox="0 0 24 24" fill="none" xmlns="http://www.w3.org/2000/svg">
<path fill-rule="evenodd" clip-rule="evenodd" d="M8 2C11.3137 2 14 4.68631 14 8C14 8.60614 13.9101 9.19128 13.7429 9.74286L20 16C21.1046 17.1046 21.1046 18.8954 20 20C18.8954 21.1046 17.1045 21.1046 16 20L9.74286 13.7429C9.19128 13.9101 8.60614 14 8 14C4.68631 14 2 11.3137 2 8C2 7.36053 2.10003 6.74441 2.28533 6.16648L5.12352 8.99998L7.93667 8.06309L8.0623 7.93747L8.99998 5.12694L6.15852 2.28795C6.73873 2.10102 7.35758 2 8 2Z" stroke="#1864FF" stroke-width="1.5"/>
</svg>
