<svg width="24" height="24" viewBox="0 0 24 24" fill="none" xmlns="http://www.w3.org/2000/svg">
<path d="M19.25 2.75H4.75C4.21957 2.75 3.71086 2.96071 3.33579 3.33579C2.96071 3.71086 2.75 4.21957 2.75 4.75V19.25C2.75 19.7804 2.96071 20.2891 3.33579 20.6642C3.71086 21.0393 4.21957 21.25 4.75 21.25H19.25C19.7804 21.25 20.2891 21.0393 20.6642 20.6642C21.0393 20.2891 21.25 19.7804 21.25 19.25V4.75C21.25 4.21957 21.0393 3.71086 20.6642 3.33579C20.2891 2.96071 19.7804 2.75 19.25 2.75Z" stroke="#1864FF" stroke-width="1.5" stroke-linecap="round" stroke-linejoin="round"/>
<path d="M5 6H10M10 10H5M13.5 14H19M19 18H13.5M13.5 6H19V10H13.5V6ZM5 14H10V18H5V14Z" stroke="#1864FF" stroke-width="1.5" stroke-linecap="round" stroke-linejoin="round"/>
</svg>
