<svg width="21" height="21" viewBox="0 0 21 21" fill="none" xmlns="http://www.w3.org/2000/svg">
<path d="M9.375 0.75C11.5196 0.75 13.5819 1.54873 15.1641 2.98145L15.4736 3.27637C17.0911 4.89387 18 7.08751 18 9.375C18 11.6625 17.0911 13.8561 15.4736 15.4736C13.8561 17.0911 11.6625 18 9.375 18C7.23039 18 5.16814 17.2013 3.58594 15.7686L3.27637 15.4736C1.65887 13.8561 0.75 11.6625 0.75 9.375C0.75 7.23039 1.54873 5.16814 2.98145 3.58594L3.27637 3.27637C4.89387 1.65887 7.08751 0.75 9.375 0.75Z" stroke="#D1D1D0" stroke-width="1.5" stroke-linecap="round" stroke-linejoin="round"/>
<path d="M16.1172 16.1504L19.9672 20.0004" stroke="#D1D1D0" stroke-width="1.5" stroke-linecap="round" stroke-linejoin="round"/>
</svg>
