<svg width="24" height="24" viewBox="0 0 24 24" fill="none" xmlns="http://www.w3.org/2000/svg">
<path d="M20.0891 12.5446L21.4798 13.783C21.7367 13.9973 21.9083 14.2965 21.9636 14.6264C22.0189 14.9563 21.9542 15.2951 21.7814 15.5814L20.1045 18.4459C19.9744 18.6652 19.7886 18.8462 19.5661 18.9705C19.3409 19.0951 19.088 19.1613 18.8307 19.1628C18.671 19.1638 18.5122 19.14 18.3599 19.0921L16.58 18.5044C16.2682 18.7044 15.9441 18.8834 15.6077 19.0413L15.2339 20.8459C15.1647 21.1778 14.9799 21.4744 14.7124 21.6828C14.4415 21.8948 14.1056 22.0068 13.7616 21.9997H10.2894C9.94545 22.0068 9.60959 21.8948 9.33868 21.6828C9.07174 21.4742 8.88748 21.1776 8.8187 20.8459L8.44333 19.0413C8.11134 18.8812 7.78923 18.7014 7.47874 18.5029L5.69265 19.0921C5.54035 19.14 5.38153 19.1638 5.22189 19.1628C4.96507 19.161 4.71279 19.0949 4.48807 18.9705C4.26568 18.8466 4.07994 18.6662 3.94963 18.4475L2.21276 15.5814C2.03219 15.2925 1.9632 14.9476 2.01871 14.6114C2.07422 14.2753 2.25042 13.9709 2.51429 13.7553L3.90347 12V11.4554L2.51275 10.217C2.25593 10.0027 2.08433 9.70349 2.02902 9.3736C1.97371 9.04372 2.03835 8.70493 2.21122 8.41858L3.94809 5.55405C4.07818 5.33478 4.26394 5.1538 4.48653 5.02945C4.71125 4.9051 4.96353 4.83899 5.22035 4.83715C5.37855 4.82717 5.53735 4.8417 5.69111 4.88023L7.44182 5.49559C7.75463 5.2956 8.07872 5.11663 8.4141 4.95869L8.78947 3.15413C8.85825 2.8224 9.04251 2.52584 9.30945 2.31723C9.58036 2.10516 9.91622 1.9932 10.2602 2.00032H13.7032C14.0471 1.9932 14.383 2.10516 14.6539 2.31723C14.9231 2.528 15.1077 2.82491 15.1739 3.15413L15.5493 4.95869C15.8826 5.11766 16.2041 5.29714 16.5138 5.49713L18.3015 4.90946C18.4999 4.84492 18.7095 4.82226 18.9171 4.84291C19.1247 4.86357 19.3258 4.92709 19.5076 5.02945C19.7307 5.1556 19.9153 5.33714 20.046 5.55251L21.7814 8.41858C21.9644 8.70506 22.0369 9.04835 21.9853 9.38436C21.9338 9.72038 21.7618 10.0262 21.5014 10.2447L20.0891 11.4477V12.5446Z" stroke="#1864FF" stroke-width="1.5" stroke-linejoin="round"/>
<path d="M15.8464 12.0003C15.8464 13.0204 15.4412 13.9986 14.7199 14.7199C13.9986 15.4412 13.0204 15.8464 12.0003 15.8464C10.9803 15.8464 10.002 15.4412 9.28077 14.7199C8.5595 13.9986 8.1543 13.0204 8.1543 12.0003C8.1543 10.9803 8.5595 10.002 9.28077 9.28077C10.002 8.5595 10.9803 8.1543 12.0003 8.1543C13.0204 8.1543 13.9986 8.5595 14.7199 9.28077C15.4412 10.002 15.8464 10.9803 15.8464 12.0003Z" stroke="#1864FF" stroke-width="1.5" stroke-linejoin="round"/>
</svg>
