<svg width="20" height="20" viewBox="0 0 20 20" fill="none" xmlns="http://www.w3.org/2000/svg">
<path d="M17.1426 14.1069V14.4641C17.1426 15.3639 16.7851 16.2269 16.1488 16.8632C15.5125 17.4995 14.6496 17.8569 13.7497 17.8569H5.53544C4.63559 17.8569 3.77261 17.4995 3.13632 16.8632C2.50004 16.2269 2.14258 15.3639 2.14258 14.4641V6.24979C2.14258 5.34995 2.50004 4.48696 3.13632 3.85068C3.77261 3.21439 4.63559 2.85693 5.53544 2.85693H8.74972" stroke="#1864FF" stroke-width="1.5" stroke-linecap="round"/>
<path d="M17.7266 7.85645L12.8926 12.5293V9.58398L12.1123 9.61523C8.11869 9.77617 5.90404 11.5714 5.05566 12.4434C5.20345 10.1593 6.20519 8.68044 7.48242 7.72266C8.90059 6.65923 10.7079 6.20386 12.1846 6.12012L12.8926 6.08008V3.18359L17.7266 7.85645Z" stroke="#1864FF" stroke-width="1.5"/>
</svg>
