<svg width="24" height="24" viewBox="0 0 24 24" fill="none" xmlns="http://www.w3.org/2000/svg">
<path d="M8.76874 17.4938H6.41032V9.95141H8.76963L8.76874 17.4938ZM7.57658 8.90349C7.39588 8.90442 7.21678 8.87 7.04967 8.80221C6.88255 8.73442 6.73072 8.63462 6.60299 8.50857C6.47525 8.38252 6.37414 8.23274 6.30551 8.0679C6.23687 7.90305 6.20208 7.72642 6.20315 7.54823C6.20315 6.80763 6.82468 6.19385 7.57658 6.19385C8.32849 6.19385 8.9518 6.80763 8.9518 7.54823C8.9518 8.28882 8.38028 8.90349 7.57658 8.90349ZM17.7139 17.4938H15.3546V13.8376C15.3546 12.9684 15.3287 11.8183 14.1107 11.8183C12.8658 11.8183 12.6845 12.7896 12.6845 13.7609V17.4938H10.3252V9.95141H12.6327V10.9993H12.6586C12.9953 10.3864 13.7481 9.77265 14.9144 9.77265C17.3255 9.77265 17.7657 11.3067 17.7657 13.4034V17.4938H17.7139Z" fill="#1864FF"/>
<path fill-rule="evenodd" clip-rule="evenodd" d="M12 2C9.284 2 8.944 2.012 7.877 2.06C6.813 2.109 6.086 2.278 5.45 2.525C4.78247 2.77582 4.17773 3.16931 3.678 3.678C3.16931 4.17773 2.77582 4.78247 2.525 5.45C2.278 6.086 2.109 6.813 2.06 7.877C2.011 8.944 2 9.284 2 12C2 14.716 2.011 15.056 2.06 16.123C2.109 17.187 2.278 17.914 2.525 18.55C2.77582 19.2175 3.16931 19.8223 3.678 20.322C4.17773 20.8307 4.78247 21.2242 5.45 21.475C6.086 21.722 6.813 21.891 7.877 21.94C8.944 21.988 9.284 22 12 22C14.716 22 15.056 21.988 16.123 21.94C17.187 21.891 17.914 21.722 18.55 21.475C19.2175 21.2242 19.8223 20.8307 20.322 20.322C20.8307 19.8223 21.2242 19.2175 21.475 18.55C21.722 17.914 21.891 17.187 21.94 16.123C21.988 15.056 22 14.716 22 12C22 9.284 21.988 8.944 21.94 7.877C21.891 6.813 21.722 6.086 21.475 5.45C21.2242 4.78247 20.8307 4.17773 20.322 3.678C19.8223 3.16931 19.2175 2.77582 18.55 2.525C17.914 2.278 17.187 2.109 16.123 2.06C15.056 2.012 14.716 2 12 2ZM12 3.802C14.67 3.802 14.986 3.812 16.04 3.86C17.016 3.905 17.545 4.067 17.898 4.204C18.364 4.386 18.698 4.603 19.048 4.952C19.398 5.302 19.614 5.636 19.796 6.102C19.932 6.455 20.096 6.984 20.14 7.959C20.188 9.014 20.198 9.329 20.198 12C20.198 14.67 20.188 14.986 20.14 16.04C20.095 17.016 19.932 17.545 19.796 17.898C19.6357 18.3324 19.3801 18.7253 19.048 19.048C18.698 19.398 18.364 19.614 17.898 19.796C17.545 19.932 17.016 20.096 16.041 20.14C14.987 20.188 14.671 20.198 12 20.198C9.33 20.198 9.013 20.188 7.96 20.14C6.984 20.095 6.455 19.932 6.102 19.796C5.66762 19.6357 5.27466 19.3801 4.952 19.048C4.61991 18.7253 4.36432 18.3324 4.204 17.898C4.067 17.545 3.904 17.016 3.86 16.041C3.812 14.986 3.802 14.671 3.802 12C3.802 9.33 3.812 9.014 3.86 7.96C3.905 6.984 4.067 6.455 4.204 6.102C4.386 5.636 4.603 5.302 4.952 4.952C5.302 4.602 5.636 4.386 6.102 4.204C6.455 4.067 6.984 3.904 7.959 3.86C9.014 3.812 9.329 3.802 12 3.802Z" fill="#1864FF"/>
</svg>
